<svg width="239" height="102" viewBox="0 0 239 102" fill="none" xmlns="http://www.w3.org/2000/svg">
<rect width="239" height="102" fill="white"/>
<path d="M118 25.5C118 32.9577 124.042 39 131.5 39C138.958 39 145 32.9577 145 25.5C145 18.0423 138.958 12 131.5 12C124.042 12 118 18.0423 118 25.5ZM142.387 25.5C142.387 31.5151 137.515 36.3871 131.5 36.3871C125.485 36.3871 120.613 31.5151 120.613 25.5C120.613 19.4849 125.485 14.6129 131.5 14.6129C137.515 14.6129 142.387 19.4849 142.387 25.5ZM138.468 24.4113V26.5887C138.468 26.948 138.174 27.2419 137.815 27.2419H131.5V30.8891C131.5 31.4716 130.798 31.7601 130.384 31.3518L124.995 25.9627C124.739 25.7069 124.739 25.2931 124.995 25.0373L130.384 19.6482C130.798 19.2345 131.5 19.5284 131.5 20.1109V23.7581H137.815C138.174 23.7581 138.468 24.052 138.468 24.4113Z" fill="black"/>
<path d="M70 12C62.2681 12 56 18.0442 56 25.5C56 32.9558 62.2681 39 70 39C77.7319 39 84 32.9558 84 25.5C84 18.0442 77.7319 12 70 12ZM70 36.1875C63.8792 36.1875 58.9167 31.4029 58.9167 25.5C58.9167 23.1167 59.7264 20.9168 61.094 19.1392L76.5966 34.0884C74.7532 35.4066 72.4713 36.1875 70 36.1875ZM78.9065 31.8605L63.4036 16.9119C65.2468 15.5931 67.5287 14.8123 70 14.8123C76.1213 14.8123 81.0833 19.5978 81.0833 25.4998C81.0833 27.883 80.2738 30.0837 78.9065 31.8605Z" fill="black"/>
<path d="M223.254 77.3674C223.053 77.8932 222.767 78.3495 222.396 78.7361C222.024 79.1228 221.584 79.4244 221.073 79.6409C220.563 79.8419 219.991 79.9425 219.356 79.9425C218.336 79.9425 217.446 79.695 216.689 79.2001C215.931 78.7052 215.351 78.0015 214.949 77.089C214.547 76.1765 214.345 75.0861 214.345 73.8179C214.345 72.5187 214.554 71.4129 214.972 70.5004C215.405 69.5879 216.008 68.8919 216.781 68.4125C217.555 67.9176 218.452 67.6701 219.472 67.6701C220.138 67.6701 220.71 67.7861 221.189 68.0181C221.669 68.2501 222.071 68.5517 222.396 68.9229C222.72 69.2786 222.976 69.673 223.161 70.106V63.4247H225.968V76.0914C225.968 76.5554 226.069 76.8802 226.27 77.0658C226.471 77.2359 226.858 77.2591 227.43 77.1354V79.3625C227.275 79.4553 227.051 79.5326 226.757 79.5945C226.463 79.6563 226.162 79.6873 225.852 79.6873C225.481 79.6873 225.094 79.6022 224.692 79.4321C224.29 79.2465 223.95 78.9836 223.672 78.6433C223.393 78.2876 223.254 77.8623 223.254 77.3674ZM220.238 77.6922C220.841 77.6767 221.359 77.5066 221.792 77.1818C222.225 76.857 222.558 76.4007 222.79 75.813C223.037 75.2253 223.161 74.5603 223.161 73.8179C223.161 73.0755 223.037 72.4182 222.79 71.846C222.558 71.2583 222.225 70.7943 221.792 70.454C221.359 70.1138 220.833 69.9436 220.215 69.9436C219.596 69.9436 219.063 70.1138 218.614 70.454C218.181 70.7943 217.849 71.2583 217.617 71.846C217.385 72.4337 217.269 73.0833 217.269 73.7947C217.269 74.568 217.385 75.2485 217.617 75.8362C217.849 76.4085 218.189 76.8647 218.637 77.205C219.086 77.5298 219.619 77.6922 220.238 77.6922Z" fill="black"/>
<path d="M201.407 79.6642V67.9486H204.214V69.8741C204.323 69.6267 204.477 69.3715 204.678 69.1086C204.879 68.8457 205.127 68.6059 205.421 68.3894C205.715 68.1729 206.055 68.0027 206.441 67.879C206.828 67.7398 207.261 67.6702 207.741 67.6702C208.684 67.6702 209.473 67.8558 210.107 68.227C210.741 68.5982 211.213 69.1318 211.522 69.8277C211.847 70.5237 212.009 71.3357 212.009 72.2637V79.6642H209.202V72.6348C209.202 71.7223 209.009 71.0573 208.622 70.6397C208.251 70.2067 207.717 69.9901 207.021 69.9901C206.356 69.9901 205.815 70.1448 205.397 70.4541C204.995 70.7634 204.694 71.212 204.493 71.7997C204.307 72.3874 204.214 73.0834 204.214 73.8876V79.6642H201.407Z" fill="black"/>
<path d="M196.426 66.4639C195.962 66.4639 195.553 66.2938 195.197 65.9535C194.857 65.5978 194.687 65.1879 194.687 64.7239C194.687 64.2445 194.857 63.8346 195.197 63.4944C195.553 63.1541 195.962 62.984 196.426 62.984C196.906 62.984 197.308 63.1541 197.633 63.4944C197.973 63.8346 198.143 64.2445 198.143 64.7239C198.143 65.1879 197.973 65.5978 197.633 65.9535C197.308 66.2938 196.906 66.4639 196.426 66.4639ZM195.011 79.6642V67.9486H197.818V79.6642H195.011Z" fill="black"/>
<path d="M181.083 79.6641V63.4247H183.89V69.874C183.998 69.6266 184.153 69.3714 184.354 69.1085C184.555 68.8455 184.803 68.6058 185.097 68.3893C185.39 68.1728 185.731 68.0026 186.117 67.8789C186.504 67.7397 186.937 67.6701 187.416 67.6701C188.36 67.6701 189.149 67.8557 189.783 68.2269C190.417 68.5981 190.889 69.1317 191.198 69.8276C191.523 70.5236 191.685 71.3356 191.685 72.2636V79.6641H188.878V72.6347C188.878 71.7222 188.685 71.0572 188.298 70.6396C187.927 70.2066 187.393 69.99 186.697 69.99C186.032 69.99 185.491 70.1447 185.073 70.454C184.671 70.7633 184.37 71.2119 184.169 71.7996C183.983 72.3873 183.89 73.0833 183.89 73.8875V79.6641H181.083Z" fill="black"/>
<path d="M172.842 79.9658C171.791 79.9658 170.816 79.726 169.919 79.2466C169.022 78.7672 168.295 78.0634 167.739 77.1355C167.197 76.2075 166.927 75.094 166.927 73.7948C166.927 72.774 167.081 71.8847 167.391 71.1269C167.715 70.3536 168.148 69.7118 168.69 69.2014C169.247 68.691 169.873 68.3121 170.569 68.0646C171.28 67.8017 172.023 67.6702 172.796 67.6702C173.894 67.6702 174.853 67.91 175.673 68.3894C176.508 68.8534 177.157 69.5416 177.621 70.4541C178.101 71.3666 178.341 72.4879 178.341 73.818V74.5372H169.177L169.154 72.658H175.464C175.464 72.4415 175.41 72.1941 175.302 71.9157C175.193 71.6218 175.023 71.3434 174.791 71.0805C174.575 70.8021 174.296 70.5701 173.956 70.3845C173.631 70.1989 173.252 70.1061 172.819 70.1061C172.108 70.1061 171.52 70.2608 171.056 70.5701C170.608 70.8794 170.267 71.3125 170.035 71.8693C169.819 72.4261 169.711 73.0756 169.711 73.818C169.711 74.5294 169.811 75.1713 170.012 75.7435C170.229 76.3003 170.569 76.7411 171.033 77.0659C171.512 77.3752 172.139 77.5299 172.912 77.5299C173.221 77.5299 173.538 77.4603 173.863 77.3211C174.203 77.1819 174.513 76.9885 174.791 76.7411C175.07 76.4782 175.278 76.1688 175.418 75.8131L178.085 76.5323C177.792 77.3056 177.382 77.9474 176.856 78.4578C176.33 78.9682 175.727 79.3471 175.046 79.5946C174.366 79.842 173.631 79.9658 172.842 79.9658Z" fill="black"/>
<path d="M156.299 69.9436C156.484 69.4797 156.755 69.0775 157.111 68.7373C157.482 68.397 157.923 68.1341 158.433 67.9485C158.943 67.7629 159.5 67.6701 160.103 67.6701C161.124 67.6701 162.006 67.9176 162.748 68.4125C163.506 68.8919 164.086 69.5879 164.488 70.5004C164.906 71.4129 165.114 72.511 165.114 73.7947C165.114 75.0939 164.898 76.1997 164.465 77.1122C164.047 78.0247 163.452 78.7284 162.678 79.2233C161.921 79.7027 161.024 79.9425 159.987 79.9425C159.353 79.9425 158.796 79.8265 158.317 79.5945C157.838 79.347 157.428 79.0377 157.087 78.6665C156.747 78.2799 156.484 77.8777 156.299 77.4602V79.6641H153.468L153.492 63.4247H156.299V69.9436ZM159.222 69.9204C158.634 69.9204 158.116 70.0906 157.667 70.4308C157.234 70.7556 156.894 71.2119 156.647 71.7996C156.415 72.3718 156.299 73.0369 156.299 73.7947C156.299 74.5216 156.415 75.1789 156.647 75.7666C156.894 76.3543 157.234 76.8183 157.667 77.1586C158.116 77.4988 158.642 77.669 159.245 77.669C159.879 77.669 160.413 77.4988 160.846 77.1586C161.294 76.8029 161.634 76.3311 161.866 75.7434C162.098 75.1557 162.214 74.5061 162.214 73.7947C162.214 73.0369 162.098 72.3641 161.866 71.7764C161.634 71.1887 161.294 70.7324 160.846 70.4076C160.397 70.0674 159.856 69.905 159.222 69.9204Z" fill="black"/>
<path d="M142.252 79.9426C140.829 79.9426 139.801 79.641 139.167 79.0378C138.533 78.4192 138.216 77.5222 138.216 76.3467V70.4078H136.035V67.9486H136.499C136.963 67.9486 137.326 67.9022 137.589 67.8094C137.852 67.7012 138.038 67.5233 138.146 67.2759C138.254 67.0284 138.308 66.6882 138.308 66.2551V65.1183H141.023V67.9718H143.807V70.4078H141.023V75.79C141.023 76.3622 141.162 76.7643 141.44 76.9963C141.734 77.2128 142.074 77.3211 142.461 77.3211C142.616 77.3211 142.801 77.3134 143.018 77.2979C143.234 77.2824 143.435 77.2592 143.621 77.2283L143.644 79.757C143.443 79.8189 143.203 79.8653 142.925 79.8962C142.662 79.9271 142.438 79.9426 142.252 79.9426Z" fill="black"/>
<path d="M128.916 79.6641V70.3845H126.619V67.9486H128.916V66.3014C128.931 65.4972 129.093 64.8476 129.403 64.3527C129.728 63.8578 130.161 63.5021 130.702 63.2855C131.259 63.069 131.893 62.9608 132.604 62.9608C132.944 62.9608 133.277 62.9762 133.602 63.0072C133.927 63.0381 134.189 63.0845 134.391 63.1463L134.367 65.3967C134.182 65.3657 133.996 65.3425 133.811 65.3271C133.625 65.3116 133.455 65.3039 133.3 65.3039C132.728 65.3039 132.318 65.4431 132.071 65.7215C131.839 65.9998 131.723 66.3865 131.723 66.8814V67.9486H134.507V70.3845H131.723V79.6641H128.916Z" fill="black"/>
<path d="M119.534 79.9658C118.483 79.9658 117.508 79.726 116.611 79.2466C115.714 78.7672 114.987 78.0634 114.43 77.1355C113.889 76.2075 113.618 75.094 113.618 73.7948C113.618 72.774 113.773 71.8847 114.082 71.1269C114.407 70.3536 114.84 69.7118 115.382 69.2014C115.938 68.691 116.565 68.3121 117.261 68.0646C117.972 67.8017 118.715 67.6702 119.488 67.6702C120.586 67.6702 121.545 67.91 122.365 68.3894C123.2 68.8534 123.849 69.5416 124.313 70.4541C124.793 71.3666 125.032 72.4879 125.032 73.818V74.5372H115.869L115.846 72.658H122.156C122.156 72.4415 122.102 72.1941 121.993 71.9157C121.885 71.6218 121.715 71.3434 121.483 71.0805C121.266 70.8021 120.988 70.5701 120.648 70.3845C120.323 70.1989 119.944 70.1061 119.511 70.1061C118.8 70.1061 118.212 70.2608 117.748 70.5701C117.299 70.8794 116.959 71.3125 116.727 71.8693C116.511 72.4261 116.402 73.0756 116.402 73.818C116.402 74.5294 116.503 75.1713 116.704 75.7435C116.92 76.3003 117.261 76.7411 117.725 77.0659C118.204 77.3752 118.831 77.5299 119.604 77.5299C119.913 77.5299 120.23 77.4603 120.555 77.3211C120.895 77.1819 121.205 76.9885 121.483 76.7411C121.761 76.4782 121.97 76.1688 122.109 75.8131L124.777 76.5323C124.483 77.3056 124.074 77.9474 123.548 78.4578C123.022 78.9682 122.419 79.3471 121.738 79.5946C121.058 79.842 120.323 79.9658 119.534 79.9658Z" fill="black"/>
<path d="M108.312 79.6641V63.4247H111.119V79.6641H108.312Z" fill="black"/>
<path d="M95.0131 79.6641V63.4247H97.8202V79.6641H95.0131Z" fill="black"/>
<path d="M90.2179 66.4639C89.7539 66.4639 89.3441 66.2938 88.9883 65.9535C88.6481 65.5978 88.478 65.1879 88.478 64.7239C88.478 64.2445 88.6481 63.8346 88.9883 63.4944C89.3441 63.1541 89.7539 62.984 90.2179 62.984C90.6973 62.984 91.0995 63.1541 91.4243 63.4944C91.7645 63.8346 91.9346 64.2445 91.9346 64.7239C91.9346 65.1879 91.7645 65.5978 91.4243 65.9535C91.0995 66.2938 90.6973 66.4639 90.2179 66.4639ZM88.8028 79.6642V67.9486H91.6098V79.6642H88.8028Z" fill="black"/>
<path d="M77.379 77.6691V85H74.5719L74.5487 67.9486H77.379V70.1293C77.5646 69.6963 77.8198 69.2942 78.1446 68.923C78.4694 68.5518 78.8638 68.2502 79.3278 68.0182C79.8072 67.7862 80.364 67.6702 80.9981 67.6702C82.0343 67.6702 82.9391 67.9177 83.7124 68.4126C84.5012 68.892 85.1121 69.588 85.5451 70.5005C85.9782 71.413 86.1947 72.5188 86.1947 73.818C86.1947 75.0862 85.9782 76.1766 85.5451 77.0891C85.1275 78.0016 84.5398 78.7053 83.782 79.2002C83.0241 79.6951 82.1349 79.9426 81.1141 79.9426C80.5109 79.9426 79.9619 79.8498 79.467 79.6642C78.972 79.4631 78.5467 79.1925 78.191 78.8522C77.8353 78.512 77.5646 78.1176 77.379 77.6691ZM80.3021 77.6923C80.9362 77.6923 81.4775 77.5299 81.9261 77.2051C82.3746 76.8648 82.7148 76.4086 82.9468 75.8363C83.1788 75.2486 83.2948 74.5681 83.2948 73.7948C83.2948 73.0834 83.1788 72.4338 82.9468 71.8461C82.7148 71.2584 82.3746 70.7944 81.9261 70.4541C81.493 70.1139 80.9594 69.9437 80.3253 69.9437C79.7221 69.9437 79.1963 70.1139 78.7478 70.4541C78.3147 70.7944 77.9745 71.2584 77.727 71.8461C77.495 72.4183 77.379 73.0756 77.379 73.818C77.379 74.5604 77.495 75.2254 77.727 75.8131C77.9745 76.4008 78.3147 76.8571 78.7478 77.1819C79.1963 77.5067 79.7144 77.6768 80.3021 77.6923Z" fill="black"/>
<path d="M71.1071 67.9486V79.6642H68.2768V77.7386C68.184 77.9861 68.0371 78.2413 67.836 78.5042C67.635 78.7671 67.3875 79.0069 67.0937 79.2234C66.7998 79.4399 66.4595 79.61 66.0729 79.7338C65.6862 79.873 65.2532 79.9426 64.7737 79.9426C63.8303 79.9426 63.0415 79.757 62.4074 79.3858C61.7733 78.9991 61.2939 78.4656 60.9691 77.785C60.6598 77.0891 60.5051 76.2771 60.5051 75.3491V67.9486H63.3122V74.9547C63.3122 75.8672 63.4978 76.54 63.869 76.9731C64.2556 77.4061 64.7969 77.6226 65.4929 77.6226C66.158 77.6226 66.6915 77.468 67.0937 77.1587C67.5112 76.8339 67.8128 76.3854 67.9984 75.8131C68.184 75.2254 68.2768 74.5294 68.2768 73.7252V67.9486H71.1071Z" fill="black"/>
<path d="M48.9692 77.6691V85H46.1621L46.1389 67.9486H48.9692V70.1293C49.1547 69.6963 49.4099 69.2942 49.7347 68.923C50.0595 68.5518 50.4539 68.2502 50.9179 68.0182C51.3973 67.7862 51.9541 67.6702 52.5882 67.6702C53.6244 67.6702 54.5292 67.9177 55.3025 68.4126C56.0913 68.892 56.7022 69.588 57.1353 70.5005C57.5683 71.413 57.7848 72.5188 57.7848 73.818C57.7848 75.0862 57.5683 76.1766 57.1353 77.0891C56.7177 78.0016 56.13 78.7053 55.3721 79.2002C54.6143 79.6951 53.725 79.9426 52.7042 79.9426C52.101 79.9426 51.552 79.8498 51.0571 79.6642C50.5622 79.4631 50.1368 79.1925 49.7811 78.8522C49.4254 78.512 49.1547 78.1176 48.9692 77.6691ZM51.8922 77.6923C52.5264 77.6923 53.0677 77.5299 53.5162 77.2051C53.9647 76.8648 54.305 76.4086 54.5369 75.8363C54.7689 75.2486 54.8849 74.5681 54.8849 73.7948C54.8849 73.0834 54.7689 72.4338 54.5369 71.8461C54.305 71.2584 53.9647 70.7944 53.5162 70.4541C53.0831 70.1139 52.5496 69.9437 51.9154 69.9437C51.3123 69.9437 50.7864 70.1139 50.3379 70.4541C49.9049 70.7944 49.5646 71.2584 49.3171 71.8461C49.0851 72.4183 48.9692 73.0756 48.9692 73.818C48.9692 74.5604 49.0851 75.2254 49.3171 75.8131C49.5646 76.4008 49.9049 76.8571 50.3379 77.1819C50.7864 77.5067 51.3045 77.6768 51.8922 77.6923Z" fill="black"/>
<path d="M30.8156 79.9426C29.7639 79.9426 28.7818 79.726 27.8693 79.293C26.9723 78.8445 26.2454 78.164 25.6886 77.2515C25.1473 76.339 24.8766 75.1867 24.8766 73.7948C24.8766 72.7431 25.039 71.8383 25.3638 71.0805C25.7041 70.3072 26.1603 69.6654 26.7325 69.155C27.3048 68.6446 27.9389 68.2734 28.6349 68.0414C29.3463 67.794 30.0732 67.6702 30.8156 67.6702C31.8518 67.6702 32.8185 67.8945 33.7155 68.343C34.6125 68.7761 35.3317 69.4488 35.873 70.3613C36.4298 71.2584 36.7082 72.4029 36.7082 73.7948C36.7082 74.8465 36.5458 75.759 36.221 76.5323C35.8962 77.2901 35.4477 77.9242 34.8754 78.4346C34.3187 78.945 33.6846 79.3239 32.9731 79.5714C32.2771 79.8188 31.558 79.9426 30.8156 79.9426ZM30.8156 77.5067C31.8209 77.5067 32.571 77.1741 33.0659 76.5091C33.5608 75.8441 33.8083 74.9393 33.8083 73.7948C33.8083 72.6812 33.5608 71.7919 33.0659 71.1269C32.5865 70.4464 31.8364 70.1061 30.8156 70.1061C29.8412 70.1061 29.0911 70.4464 28.5653 71.1269C28.0394 71.7919 27.7765 72.6812 27.7765 73.7948C27.7765 74.9393 28.0394 75.8441 28.5653 76.5091C29.0911 77.1741 29.8412 77.5067 30.8156 77.5067Z" fill="black"/>
<path d="M12.008 79.6642V67.9486H14.8151V69.8741C14.9234 69.6267 15.078 69.3715 15.2791 69.1086C15.4801 68.8457 15.7276 68.6059 16.0214 68.3894C16.3153 68.1729 16.6556 68.0027 17.0422 67.879C17.4289 67.7398 17.8619 67.6702 18.3414 67.6702C19.2848 67.6702 20.0736 67.8558 20.7077 68.227C21.3418 68.5982 21.8135 69.1318 22.1228 69.8277C22.4476 70.5237 22.61 71.3357 22.61 72.2637V79.6642H19.8029V72.6348C19.8029 71.7223 19.6096 71.0573 19.2229 70.6397C18.8517 70.2067 18.3182 69.9901 17.6222 69.9901C16.9571 69.9901 16.4158 70.1448 15.9982 70.4541C15.5961 70.7634 15.2945 71.212 15.0935 71.7997C14.9079 72.3874 14.8151 73.0834 14.8151 73.8876V79.6642H12.008Z" fill="black"/>
<path d="M111.781 18.0889C113.182 20.2167 114 22.7622 114 25.5C114 32.9558 107.956 39 100.5 39V36.1071C106.165 36.1071 110.792 31.6654 111.09 26.0744C109.832 26.8826 108.337 27.3551 106.73 27.3551C102.266 27.3546 98.6454 23.7344 98.6449 19.2698C98.6449 17.6629 99.1154 16.1665 99.9237 14.9079C94.3335 15.2072 89.8929 19.8352 89.8929 25.5C89.8929 31.3582 94.6418 36.1071 100.5 36.1071V39C93.0442 39 87 32.9558 87 25.5C87 18.0442 93.0442 12 100.5 12C103.237 12 105.782 12.817 107.909 14.2167C107.53 14.1287 107.136 14.0774 106.73 14.0774C103.863 14.0777 101.538 16.4024 101.538 19.2698C101.538 22.137 103.863 24.4619 106.73 24.4623C109.598 24.4623 111.922 22.1372 111.923 19.2698C111.923 18.8633 111.87 18.4686 111.781 18.0889Z" fill="black"/>
<path d="M165.687 21.6663C165.687 17.9293 162.657 14.8999 158.92 14.8999C155.183 14.8999 152.154 17.9293 152.154 21.6663C152.154 25.4033 155.183 28.4327 158.92 28.4327V31.3326C153.582 31.3326 149.254 27.0049 149.254 21.6663C149.254 16.3278 153.582 12 158.92 12C164.259 12 168.587 16.3278 168.587 21.6663C168.587 27.0049 164.259 31.3326 158.92 31.3326V28.4327C162.657 28.4327 165.687 25.4033 165.687 21.6663Z" fill="black"/>
<path d="M176.32 27.4661C176.32 33.8724 171.126 39.0657 164.72 39.0657C158.314 39.0657 153.121 33.8724 153.121 27.4661C153.121 21.0598 158.314 15.8665 164.72 15.8665C171.126 15.8665 176.32 21.0598 176.32 27.4661Z" fill="white"/>
<path d="M173.42 27.4661C173.42 22.6614 169.525 18.7664 164.72 18.7664C159.916 18.7664 156.021 22.6614 156.021 27.4661C156.021 32.2708 159.916 36.1658 164.72 36.1658V39.0657C158.314 39.0657 153.121 33.8724 153.121 27.4661C153.121 21.0598 158.314 15.8665 164.72 15.8665C171.126 15.8665 176.32 21.0598 176.32 27.4661C176.32 33.8724 171.126 39.0657 164.72 39.0657V36.1658C169.525 36.1658 173.42 32.2708 173.42 27.4661Z" fill="black"/>
</svg>
