<svg width="182" height="57" viewBox="0 0 182 57" fill="none" xmlns="http://www.w3.org/2000/svg">
<rect width="182" height="57" fill="white"/>
<path d="M8 40.6429C8 46.5012 12.7466 51.2478 18.605 51.2478C24.4633 51.2478 29.2099 46.5012 29.2099 40.6429C29.2099 34.7845 24.4633 30.0379 18.605 30.0379C12.7466 30.0379 8 34.7845 8 40.6429ZM27.1573 40.6429C27.1573 45.368 23.3301 49.1952 18.605 49.1952C13.8798 49.1952 10.0526 45.368 10.0526 40.6429C10.0526 35.9177 13.8798 32.0905 18.605 32.0905C23.3301 32.0905 27.1573 35.9177 27.1573 40.6429ZM24.0785 39.7876V41.4981C24.0785 41.7803 23.8476 42.0112 23.5653 42.0112H18.605V44.8763C18.605 45.3338 18.0533 45.5605 17.7283 45.2398L13.4949 41.0063C13.2939 40.8054 13.2939 40.4804 13.4949 40.2794L17.7283 36.046C18.0533 35.721 18.605 35.9519 18.605 36.4094V39.2745H23.5653C23.8476 39.2745 24.0785 39.5054 24.0785 39.7876Z" fill="black"/>
<path d="M18.605 6C12.748 6 8 10.748 8 16.605C8 22.4619 12.748 27.2099 18.605 27.2099C24.4619 27.2099 29.2099 22.4619 29.2099 16.605C29.2099 10.748 24.4619 6 18.605 6ZM18.605 25.0005C13.9685 25.0005 10.2094 21.242 10.2094 16.605C10.2094 14.7328 10.8228 13.0046 11.8587 11.6082L23.6019 23.3516C22.2055 24.3871 20.477 25.0005 18.605 25.0005ZM25.3516 21.6015L13.6082 9.85852C15.0044 8.82258 16.7329 8.20922 18.605 8.20922C23.2418 8.20922 27.0005 11.9685 27.0005 16.6048C27.0005 18.477 26.3873 20.2057 25.3516 21.6015Z" fill="black"/>
<path d="M138.611 21.0825V8.41315H141.144V21.0825H138.611Z" fill="black"/>
<path d="M134.057 10.9652C133.647 10.9652 133.291 10.8144 132.989 10.5127C132.688 10.199 132.537 9.83704 132.537 9.42679C132.537 9.00448 132.688 8.6425 132.989 8.34084C133.291 8.03919 133.647 7.88837 134.057 7.88837C134.492 7.88837 134.853 8.03919 135.143 8.34084C135.433 8.6425 135.577 9.00448 135.577 9.42679C135.577 9.83704 135.433 10.199 135.143 10.5127C134.853 10.8144 134.492 10.9652 134.057 10.9652ZM132.79 21.0826V11.8883H135.324V21.0826H132.79Z" fill="black"/>
<path d="M123.442 19.5804V25.2454H120.908L120.89 11.8883H123.442V13.5715C123.599 13.2336 123.804 12.926 124.057 12.6484C124.311 12.3588 124.618 12.1236 124.98 11.9426C125.342 11.7616 125.758 11.6711 126.229 11.6711C127.025 11.6711 127.725 11.8641 128.329 12.2503C128.944 12.6364 129.42 13.1914 129.758 13.9154C130.108 14.6273 130.283 15.49 130.283 16.5035C130.283 17.493 130.114 18.3497 129.776 19.0736C129.451 19.7855 128.992 20.3345 128.401 20.7206C127.81 21.1068 127.116 21.2998 126.32 21.2998C125.825 21.2998 125.39 21.2274 125.016 21.0826C124.642 20.9258 124.323 20.7206 124.057 20.4673C123.804 20.2018 123.599 19.9062 123.442 19.5804ZM125.505 19.3451C125.939 19.3451 126.313 19.2305 126.627 19.0012C126.953 18.772 127.2 18.4462 127.369 18.0239C127.55 17.5895 127.641 17.0827 127.641 16.5035C127.641 15.9726 127.55 15.496 127.369 15.0737C127.2 14.6393 126.953 14.2955 126.627 14.0421C126.313 13.7887 125.939 13.662 125.505 13.662C125.095 13.662 124.733 13.7887 124.419 14.0421C124.117 14.2955 123.876 14.6393 123.695 15.0737C123.526 15.496 123.442 15.9726 123.442 16.5035C123.442 17.0707 123.526 17.5714 123.695 18.0058C123.876 18.4281 124.117 18.7539 124.419 18.9831C124.733 19.2124 125.095 19.333 125.505 19.3451Z" fill="black"/>
<path d="M117.809 11.8882V21.0826H115.275V19.6709C115.179 19.8881 115.046 20.0992 114.877 20.3043C114.708 20.4974 114.509 20.6724 114.28 20.8292C114.063 20.974 113.815 21.0886 113.538 21.1731C113.272 21.2576 112.983 21.2998 112.669 21.2998C111.861 21.2998 111.197 21.1429 110.678 20.8292C110.171 20.5034 109.797 20.063 109.556 19.508C109.315 18.9529 109.194 18.3134 109.194 17.5895V11.8882H111.728V17.2456C111.728 17.9092 111.854 18.416 112.108 18.7659C112.361 19.1038 112.747 19.2727 113.266 19.2727C113.773 19.2727 114.171 19.152 114.461 18.9107C114.75 18.6694 114.955 18.3255 115.076 17.8791C115.209 17.4205 115.275 16.8655 115.275 16.2139V11.8882H117.809Z" fill="black"/>
<path d="M99.7411 19.5804V25.2454H97.2072L97.1891 11.8883H99.7411V13.5715C99.8979 13.2336 100.103 12.926 100.356 12.6484C100.61 12.3588 100.918 12.1236 101.279 11.9426C101.641 11.7616 102.058 11.6711 102.528 11.6711C103.325 11.6711 104.025 11.8641 104.628 12.2503C105.243 12.6364 105.72 13.1914 106.058 13.9154C106.408 14.6273 106.583 15.49 106.583 16.5035C106.583 17.493 106.414 18.3497 106.076 19.0736C105.75 19.7855 105.291 20.3345 104.7 20.7206C104.109 21.1068 103.415 21.2998 102.619 21.2998C102.124 21.2998 101.69 21.2274 101.316 21.0826C100.942 20.9258 100.622 20.7206 100.356 20.4673C100.103 20.2018 99.8979 19.9062 99.7411 19.5804ZM101.804 19.3451C102.239 19.3451 102.613 19.2305 102.927 19.0012C103.252 18.772 103.5 18.4462 103.669 18.0239C103.85 17.5895 103.94 17.0827 103.94 16.5035C103.94 15.9726 103.85 15.496 103.669 15.0737C103.5 14.6393 103.252 14.2955 102.927 14.0421C102.613 13.7887 102.239 13.662 101.804 13.662C101.394 13.662 101.032 13.7887 100.718 14.0421C100.417 14.2955 100.175 14.6393 99.9945 15.0737C99.8255 15.496 99.7411 15.9726 99.7411 16.5035C99.7411 17.0707 99.8255 17.5714 99.9945 18.0058C100.175 18.4281 100.417 18.7539 100.718 18.9831C101.032 19.2124 101.394 19.333 101.804 19.3451Z" fill="black"/>
<path d="M83.971 21.2998C83.1384 21.2998 82.3541 21.1309 81.6181 20.793C80.882 20.4552 80.2848 19.9303 79.8263 19.2184C79.3677 18.5065 79.1385 17.5955 79.1385 16.4854C79.1385 15.6408 79.2772 14.9169 79.5548 14.3136C79.8323 13.7102 80.2063 13.2155 80.6769 12.8294C81.1475 12.4312 81.6663 12.1417 82.2334 11.9607C82.8126 11.7676 83.3918 11.6711 83.971 11.6711C84.8035 11.6711 85.5818 11.84 86.3057 12.1779C87.0418 12.5157 87.633 13.0406 88.0795 13.7525C88.538 14.4523 88.7672 15.3633 88.7672 16.4854C88.7672 17.318 88.6285 18.0359 88.3509 18.6392C88.0855 19.2425 87.7235 19.7433 87.265 20.1415C86.8065 20.5397 86.2876 20.8353 85.7085 21.0283C85.1414 21.2093 84.5622 21.2998 83.971 21.2998ZM83.971 19.1279C84.707 19.1279 85.25 18.8926 85.5999 18.4221C85.9498 17.9394 86.1247 17.2939 86.1247 16.4854C86.1247 15.6891 85.9498 15.0496 85.5999 14.5669C85.262 14.0843 84.7191 13.843 83.971 13.843C83.2711 13.843 82.7281 14.0843 82.342 14.5669C81.968 15.0496 81.781 15.6891 81.781 16.4854C81.781 17.2939 81.968 17.9394 82.342 18.4221C82.7281 18.8926 83.2711 19.1279 83.971 19.1279Z" fill="black"/>
<path d="M68.2701 21.0826V11.8883H70.804V13.3C70.9005 13.0828 71.0332 12.8777 71.2021 12.6846C71.3711 12.4795 71.5641 12.3046 71.7813 12.1598C72.0106 12.0029 72.264 11.8822 72.5415 11.7978C72.819 11.7133 73.1086 11.6711 73.4102 11.6711C74.2187 11.6711 74.8763 11.8279 75.383 12.1417C75.9019 12.4554 76.282 12.8958 76.5233 13.4629C76.7646 14.0179 76.8853 14.6574 76.8853 15.3814V21.0826H74.3514V15.7253C74.3514 15.0496 74.2247 14.5428 73.9713 14.205C73.7179 13.8671 73.3318 13.6982 72.813 13.6982C72.3183 13.6982 71.9201 13.8188 71.6184 14.0602C71.3288 14.2894 71.1177 14.6333 70.9849 15.0918C70.8643 15.5503 70.804 16.1054 70.804 16.7569V21.0826H68.2701Z" fill="black"/>
<path d="M166.416 43.3867C166.247 43.797 166.024 44.159 165.747 44.4727C165.481 44.7743 165.149 45.0096 164.751 45.1785C164.365 45.3475 163.907 45.4319 163.376 45.4319C162.591 45.4319 161.904 45.2389 161.312 44.8528C160.733 44.4666 160.287 43.9176 159.973 43.2057C159.659 42.4818 159.503 41.6251 159.503 40.6357C159.503 39.6221 159.665 38.7594 159.991 38.0475C160.329 37.3235 160.794 36.7685 161.385 36.3824C161.988 35.9962 162.682 35.8032 163.466 35.8032C163.973 35.8032 164.407 35.8937 164.769 36.0747C165.143 36.2557 165.457 36.491 165.71 36.7805C165.976 37.0581 166.187 37.3657 166.344 37.7036V32.5453H168.878L168.86 42.1741C168.86 42.5361 168.938 42.7834 169.095 42.9161C169.252 43.0489 169.554 43.067 170 42.9704V44.9613C169.879 45.0337 169.68 45.1001 169.403 45.1604C169.137 45.2087 168.884 45.2328 168.643 45.2328C168.365 45.2328 168.051 45.1725 167.701 45.0518C167.351 44.9191 167.05 44.714 166.796 44.4365C166.543 44.159 166.416 43.809 166.416 43.3867ZM164.299 43.4772C164.709 43.4652 165.065 43.3445 165.367 43.1152C165.68 42.886 165.922 42.5602 166.091 42.1379C166.272 41.7035 166.362 41.2028 166.362 40.6357C166.362 40.1047 166.272 39.6281 166.091 39.2058C165.922 38.7714 165.68 38.4276 165.367 38.1742C165.065 37.9208 164.709 37.7941 164.299 37.7941C163.864 37.7941 163.484 37.9208 163.159 38.1742C162.845 38.4276 162.597 38.7714 162.416 39.2058C162.248 39.6281 162.163 40.1047 162.163 40.6357C162.163 41.2148 162.248 41.7216 162.416 42.156C162.597 42.5783 162.845 42.9041 163.159 43.1333C163.484 43.3626 163.864 43.4772 164.299 43.4772Z" fill="black"/>
<path d="M148.526 45.2148V36.0204H151.059V37.4321C151.156 37.215 151.289 37.0098 151.458 36.8168C151.626 36.6117 151.82 36.4367 152.037 36.2919C152.266 36.135 152.519 36.0144 152.797 35.9299C153.074 35.8455 153.364 35.8032 153.666 35.8032C154.474 35.8032 155.132 35.9601 155.638 36.2738C156.157 36.5875 156.537 37.0279 156.779 37.595C157.02 38.1501 157.141 38.7896 157.141 39.5135V45.2148H154.607V39.8574C154.607 39.1817 154.48 38.6749 154.227 38.3371C153.973 37.9992 153.587 37.8303 153.068 37.8303C152.574 37.8303 152.176 37.951 151.874 38.1923C151.584 38.4216 151.373 38.7654 151.24 39.224C151.12 39.6825 151.059 40.2375 151.059 40.8891V45.2148H148.526Z" fill="black"/>
<path d="M143.936 35.0974C143.526 35.0974 143.17 34.9466 142.868 34.6449C142.566 34.3312 142.416 33.9692 142.416 33.559C142.416 33.1367 142.566 32.7747 142.868 32.473C143.17 32.1714 143.526 32.0206 143.936 32.0206C144.37 32.0206 144.732 32.1714 145.022 32.473C145.312 32.7747 145.456 33.1367 145.456 33.559C145.456 33.9692 145.312 34.3312 145.022 34.6449C144.732 34.9466 144.37 35.0974 143.936 35.0974ZM142.669 45.2148V36.0205H145.203V45.2148H142.669Z" fill="black"/>
<path d="M130.94 45.2147V32.5453H133.474V37.4321C133.571 37.2149 133.704 37.0098 133.872 36.8167C134.041 36.6116 134.234 36.4367 134.452 36.2919C134.681 36.135 134.934 36.0143 135.212 35.9299C135.489 35.8454 135.779 35.8032 136.081 35.8032C136.889 35.8032 137.547 35.96 138.053 36.2738C138.572 36.5875 138.952 37.0279 139.194 37.595C139.435 38.15 139.556 38.7895 139.556 39.5135V45.2147H137.022V39.8574C137.022 39.1817 136.895 38.6749 136.642 38.3371C136.388 37.9992 136.002 37.8303 135.483 37.8303C134.989 37.8303 134.59 37.951 134.289 38.1923C133.999 38.4215 133.788 38.7654 133.655 39.2239C133.535 39.6824 133.474 40.2375 133.474 40.889V45.2147H130.94Z" fill="black"/>
<path d="M123.7 45.4501C122.891 45.4501 122.119 45.263 121.383 44.889C120.659 44.5149 120.068 43.9659 119.609 43.242C119.163 42.518 118.94 41.6311 118.94 40.5814C118.94 39.7609 119.072 39.055 119.338 38.4638C119.603 37.8605 119.959 37.3658 120.406 36.9797C120.864 36.5815 121.371 36.2859 121.926 36.0928C122.493 35.8998 123.072 35.8032 123.664 35.8032C124.569 35.8032 125.353 36.0023 126.016 36.4005C126.692 36.7866 127.211 37.3477 127.573 38.0837C127.947 38.8197 128.134 39.7006 128.134 40.7262V41.3235H120.84L120.822 39.7669H125.546C125.546 39.6101 125.504 39.4291 125.419 39.224C125.335 39.0188 125.208 38.8258 125.039 38.6448C124.882 38.4517 124.683 38.2949 124.442 38.1742C124.213 38.0415 123.947 37.9751 123.645 37.9751C123.139 37.9751 122.722 38.0897 122.397 38.319C122.071 38.5483 121.823 38.862 121.655 39.2602C121.498 39.6463 121.419 40.0867 121.419 40.5814C121.419 41.1364 121.498 41.6191 121.655 42.0293C121.823 42.4275 122.077 42.7352 122.415 42.9524C122.765 43.1696 123.205 43.2782 123.736 43.2782C123.917 43.2782 124.122 43.2359 124.351 43.1515C124.581 43.0549 124.798 42.9162 125.003 42.7352C125.208 42.5542 125.365 42.337 125.473 42.0836L127.863 42.7895C127.585 43.4531 127.217 43.984 126.759 44.3822C126.312 44.7683 125.823 45.0458 125.292 45.2148C124.762 45.3716 124.231 45.4501 123.7 45.4501Z" fill="black"/>
<path d="M110.251 37.5226C110.408 37.1968 110.619 36.9072 110.885 36.6539C111.162 36.3884 111.494 36.1833 111.88 36.0385C112.278 35.8816 112.725 35.8032 113.22 35.8032C114.016 35.8032 114.704 35.9962 115.283 36.3824C115.862 36.7685 116.308 37.3175 116.622 38.0294C116.936 38.7413 117.093 39.598 117.093 40.5995C117.093 41.613 116.924 42.4818 116.586 43.2057C116.26 43.9176 115.802 44.4666 115.21 44.8528C114.619 45.2389 113.925 45.4319 113.129 45.4319C112.658 45.4319 112.236 45.3414 111.862 45.1604C111.488 44.9794 111.162 44.7442 110.885 44.4546C110.619 44.165 110.408 43.8573 110.251 43.5315V45.2147H107.699L107.717 32.5453H110.251V37.5226ZM112.315 37.7579C111.904 37.7579 111.542 37.8786 111.229 38.1199C110.927 38.3491 110.686 38.6749 110.505 39.0972C110.336 39.5195 110.251 40.0203 110.251 40.5995C110.251 41.1304 110.336 41.613 110.505 42.0474C110.686 42.4697 110.927 42.8076 111.229 43.0609C111.542 43.3143 111.904 43.441 112.315 43.441C112.749 43.441 113.123 43.3143 113.437 43.0609C113.762 42.8076 114.01 42.4637 114.179 42.0293C114.36 41.5949 114.45 41.1183 114.45 40.5995C114.45 40.0203 114.36 39.5195 114.179 39.0972C114.01 38.6629 113.762 38.331 113.437 38.1018C113.123 37.8605 112.749 37.7458 112.315 37.7579Z" fill="black"/>
<path d="M97.5783 45.432C96.3959 45.432 95.5331 45.1907 94.9902 44.708C94.4593 44.2133 94.1938 43.4833 94.1938 42.518V38.2104H92.4563V36.0204H92.8002C93.1863 36.0204 93.488 35.9782 93.7051 35.8937C93.9223 35.8093 94.0732 35.6705 94.1576 35.4775C94.2541 35.2723 94.3024 35.0069 94.3024 34.6811V33.8666H96.7277V36.0385H98.8272V38.2104H96.7277V41.8845C96.7277 42.3069 96.8363 42.6025 97.0535 42.7714C97.2707 42.9283 97.4999 43.0067 97.7412 43.0067C97.8619 43.0067 98.0127 43.0007 98.1937 42.9886C98.3747 42.9765 98.5376 42.9584 98.6824 42.9343L98.7005 45.2872C98.5436 45.3354 98.3506 45.3716 98.1213 45.3958C97.9041 45.4199 97.7231 45.432 97.5783 45.432Z" fill="black"/>
<path d="M86.001 45.2147V38.1923H84.191V36.0204H86.001L86.0191 34.7896C86.0311 34.126 86.1759 33.6071 86.4534 33.2331C86.743 32.847 87.105 32.5755 87.5394 32.4186C87.9858 32.2618 88.4624 32.1833 88.9692 32.1833C89.2829 32.1833 89.5846 32.1954 89.8742 32.2195C90.1638 32.2437 90.387 32.2799 90.5438 32.3281L90.5257 34.3552C90.3809 34.3311 90.2361 34.313 90.0914 34.3009C89.9466 34.2889 89.8138 34.2828 89.6932 34.2828C89.2467 34.2828 88.939 34.3975 88.7701 34.6267C88.6133 34.8439 88.5348 35.1214 88.5348 35.4593V36.0204H90.6343V38.1923H88.5348V45.2147H86.001Z" fill="black"/>
<path d="M77.996 45.4501C77.1875 45.4501 76.4153 45.263 75.6793 44.889C74.9553 44.5149 74.3641 43.9659 73.9056 43.242C73.4591 42.518 73.2359 41.6311 73.2359 40.5814C73.2359 39.7609 73.3686 39.055 73.6341 38.4638C73.8995 37.8605 74.2555 37.3658 74.7019 36.9797C75.1604 36.5815 75.6672 36.2859 76.2223 36.0928C76.7894 35.8998 77.3685 35.8032 77.9598 35.8032C78.8647 35.8032 79.649 36.0023 80.3127 36.4005C80.9884 36.7866 81.5072 37.3477 81.8692 38.0837C82.2432 38.8197 82.4303 39.7006 82.4303 40.7262V41.3235H75.1363L75.1182 39.7669H79.8421C79.8421 39.6101 79.7998 39.4291 79.7154 39.224C79.6309 39.0188 79.5042 38.8258 79.3353 38.6448C79.1784 38.4517 78.9794 38.2949 78.738 38.1742C78.5088 38.0415 78.2433 37.9751 77.9417 37.9751C77.4349 37.9751 77.0186 38.0897 76.6928 38.319C76.367 38.5483 76.1197 38.862 75.9508 39.2602C75.7939 39.6463 75.7155 40.0867 75.7155 40.5814C75.7155 41.1364 75.7939 41.6191 75.9508 42.0293C76.1197 42.4275 76.3731 42.7352 76.7109 42.9524C77.0608 43.1696 77.5013 43.2782 78.0322 43.2782C78.2132 43.2782 78.4183 43.2359 78.6475 43.1515C78.8768 43.0549 79.094 42.9162 79.2991 42.7352C79.5042 42.5542 79.6611 42.337 79.7697 42.0836L82.1588 42.7895C81.8812 43.4531 81.5132 43.984 81.0547 44.3822C80.6083 44.7683 80.1196 45.0458 79.5887 45.2148C79.0578 45.3716 78.5269 45.4501 77.996 45.4501Z" fill="black"/>
<path d="M68.2339 45.2147V32.5453H70.7678V45.2147H68.2339Z" fill="black"/>
<path d="M51.505 10.7832C52.6052 12.4546 53.2478 14.4543 53.2478 16.605C53.2478 22.4619 48.4998 27.2099 42.6429 27.2099V24.9374C47.0933 24.9374 50.7276 21.4482 50.962 17.0562C49.9734 17.691 48.7992 18.0622 47.537 18.0622C44.0298 18.0619 41.186 15.218 41.1856 11.7108C41.1856 10.4485 41.5551 9.27302 42.1901 8.28433C37.7988 8.51944 34.3104 12.1549 34.3104 16.605C34.3104 21.2068 38.041 24.9374 42.6429 24.9374V27.2099C36.7859 27.2099 32.0379 22.4619 32.0379 16.605C32.0379 10.748 36.7859 6 42.6429 6C44.7928 6 46.792 6.64179 48.4632 7.74135C48.1654 7.6722 47.8557 7.63187 47.537 7.63187C45.2845 7.63212 43.4581 9.45829 43.4581 11.7108C43.4583 13.9631 45.2847 15.7895 47.537 15.7898C49.7895 15.7898 51.6157 13.9633 51.6159 11.7108C51.6159 11.3915 51.5744 11.0814 51.505 10.7832Z" fill="black"/>
<path d="M44.6578 37.4614C44.6578 34.5915 42.3313 32.2649 39.4614 32.2649C36.5915 32.2649 34.2649 34.5915 34.2649 37.4614C34.2649 40.3313 36.5915 42.6578 39.4614 42.6578V44.8848C35.3615 44.8848 32.0379 41.5612 32.0379 37.4614C32.0379 33.3615 35.3615 30.0379 39.4614 30.0379C43.5612 30.0379 46.8848 33.3615 46.8848 37.4614C46.8848 41.5612 43.5612 44.8848 39.4614 44.8848V42.6578C42.3313 42.6578 44.6578 40.3313 44.6578 37.4614Z" fill="black"/>
<path d="M53.2478 42.0569C53.2478 47.1329 49.1329 51.2478 44.0569 51.2478C38.9808 51.2478 34.8659 47.1329 34.8659 42.0569C34.8659 36.9808 38.9808 32.8659 44.0569 32.8659C49.1329 32.8659 53.2478 36.9808 53.2478 42.0569Z" fill="white"/>
<path d="M50.9501 42.0569C50.9501 38.2498 47.8639 35.1636 44.0569 35.1636C40.2498 35.1636 37.1636 38.2498 37.1636 42.0569C37.1636 45.8639 40.2498 48.9501 44.0569 48.9501V51.2478C38.9808 51.2478 34.8659 47.1329 34.8659 42.0569C34.8659 36.9808 38.9808 32.8659 44.0569 32.8659C49.1329 32.8659 53.2478 36.9808 53.2478 42.0569C53.2478 47.1329 49.1329 51.2478 44.0569 51.2478V48.9501C47.8639 48.9501 50.9501 45.8639 50.9501 42.0569Z" fill="black"/>
</svg>
